<svg width="889.000061" height="567.410645" viewBox="0 0 889 567.411" fill="none" xmlns="http://www.w3.org/2000/svg" xmlns:xlink="http://www.w3.org/1999/xlink">
	<desc>
			Created with Pixso.
	</desc>
	<defs>
		<filter id="filter_81_92_dd" x="0.000000" y="0.000000" width="889.000061" height="567.410645" filterUnits="userSpaceOnUse" color-interpolation-filters="sRGB">
			<feFlood flood-opacity="0" result="BackgroundImageFix"/>
			<feBlend mode="normal" in="SourceGraphic" in2="BackgroundImageFix" result="shape"/>
			<feGaussianBlur stdDeviation="1.33333" result="effect_layerBlur_1"/>
		</filter>
	</defs>
	<g filter="url(#filter_81_92_dd)">
		<path id="XMLID_785_" d="M855.05 254.55C889.13 204.15 894.38 147.99 869.47 91.83C844.56 34.23 799.99 6.87 743.62 5.43C693.85 4.48 643.5 4.79 592.95 5.11C567.61 5.27 542.21 5.43 516.82 5.43C440.78 4 363.44 2.56 284.78 6.87C237.59 6.87 216.61 45.75 237.59 93.27C253.32 127.83 270.36 160.95 287.4 195.51C339.84 304.95 392.28 414.39 446.03 523.83C465.69 562.71 497.16 574.23 524.69 552.63C546.97 535.35 552.22 499.35 537.8 470.55C484.05 361.11 430.3 251.67 375.24 143.67C362.13 116.31 367.37 111.99 393.59 111.99C510.27 113.43 625.63 113.43 742.31 113.43C767.21 113.43 788.19 136.47 786.88 162.39C785.57 189.75 763.28 208.47 735.75 207.03C667.58 204.15 600.72 204.15 533.86 202.71C515.51 202.71 516.82 211.35 523.38 224.31C535.17 248.79 546.97 271.83 557.46 296.31C562.7 309.27 571.88 315.03 584.99 315.03C603.3 315.03 621.75 315.19 640.24 315.35C677.39 315.67 714.73 316 751.48 315.03C793.43 313.59 830.14 293.43 855.05 254.55ZM743.59 6.43L743.6 6.43Q782.55 7.43 811.92 24.72Q814.9 26.48 817.79 28.41Q819.12 29.3 820.43 30.22Q851.1 51.87 868.55 92.23Q884.87 129.02 883.95 165.37Q883.83 170.32 883.39 175.27Q882.94 180.21 882.18 185.1Q876.63 220.85 854.22 253.99L854.21 254L854.21 254.01Q837.57 279.99 813.97 295.05Q811.6 296.56 809.16 297.97Q801.9 302.14 794.22 305.23Q774.29 313.25 751.45 314.03Q714.71 315 640.25 314.35Q603.35 314.03 584.99 314.03Q575.54 314.03 568.96 309.69Q562.12 305.16 558.39 295.94Q550.6 277.76 533.42 242.66Q527.33 230.22 524.28 223.88Q518.92 213.29 520.24 208.94Q520.36 208.53 520.55 208.15Q522.77 203.71 533.86 203.71Q556.21 204.2 601.05 204.84Q690.38 206.12 735.71 208.03Q749.09 208.73 759.97 203.85Q766.31 201.01 771.8 196.27Q778.25 190.7 782.13 183.71Q787.31 174.35 787.88 162.44Q788.34 153.35 785.71 145.26Q782.6 135.69 775.16 127.52Q766.94 118.49 756.79 114.87Q749.98 112.43 742.31 112.43L568.24 112.26L393.6 110.99Q372.78 110.99 368.83 117.03Q364.51 123.61 374.33 144.11L374.34 144.12L374.35 144.13Q429.47 252.27 536.88 470.97L536.9 470.99Q542.76 482.7 544.34 494.97Q545.66 505.17 544.02 515.76Q541.29 533.3 531.48 544.79Q528.18 548.66 524.07 551.84Q511.16 561.98 497.87 562.48Q490.37 562.76 482.75 559.97Q461.49 552.19 446.92 523.38L288.35 195.17L288.3 195.08Q283.85 186.04 274.96 168.21Q250.11 118.37 238.5 92.86Q230.85 75.54 230.47 59.7Q230.12 45.01 236.05 33.57Q236.27 33.15 236.5 32.73Q239.13 27.9 242.74 23.97Q247.88 18.36 255.01 14.58Q267.65 7.87 284.78 7.87L284.81 7.87L284.83 7.87Q337.25 5 401.78 5Q440.78 5 516.8 6.43Q542.22 6.43 592.96 6.11Q693.83 5.48 743.59 6.43Z" fill="#FFFFFF" fill-opacity="0.400000" fill-rule="evenodd"/>
		<path id="XMLID_781_" d="M341.15 502.23C341.15 531.03 330.66 548.31 308.38 554.07C284.78 559.83 263.8 555.51 250.69 529.59C229.72 489.27 210.05 447.51 190.39 405.75C140.57 303.51 92.07 201.27 42.25 99.04C23.9 60.16 29.14 29.92 56.67 14.08C82.89 -1.76 111.73 11.2 128.77 47.2C196.94 186.87 263.8 326.55 331.97 464.79C337.22 477.75 342.46 490.71 341.15 502.23ZM331.06 465.2Q336.27 478.09 338.06 484.33Q341.01 494.64 340.16 502.12L340.15 502.18L340.15 502.23Q340.15 530.49 326.05 543.65Q318.91 550.31 308.14 553.1Q308.13 553.1 308.13 553.1Q286.38 558.41 271.45 550.63Q259.23 544.26 251.59 529.14Q230.61 488.82 191.29 405.33L117.22 251.96L43.15 98.6Q29.54 69.76 33.24 48.08Q34.72 39.41 38.91 32.33Q45.09 21.89 57.17 14.94Q68.13 8.32 79.09 8.31Q87.42 8.3 95.75 12.1Q115.28 21.02 127.87 47.62L331.06 465.2Z" fill="#FFFFFF" fill-opacity="0.400000" fill-rule="evenodd"/>
		<rect id="Rectangle 2" x="4.500000" y="346.407715" rx="30.000000" width="81.395500" height="210.178436" stroke="#FFFFFF" stroke-opacity="0.400000" stroke-width="1.000000"/>
		<rect id="Rectangle 3" x="4.500000" y="230.761719" rx="30.000000" width="81.395500" height="89.505035" stroke="#FFFFFF" stroke-opacity="0.400000" stroke-width="1.000000"/>
	</g>
</svg>
