<svg width="853.530029" height="559.410645" viewBox="0 0 853.53 559.411" fill="none" xmlns="http://www.w3.org/2000/svg" xmlns:xlink="http://www.w3.org/1999/xlink">
	<desc>
			Created with Pixso.
	</desc>
	<defs/>
	<path id="XMLID_785_" d="M823.58 250.55C857.66 200.15 862.91 143.99 838 87.83C813.09 30.23 768.52 2.87 712.15 1.43C662.38 0.48 612.03 0.79 561.48 1.11C536.14 1.27 510.74 1.43 485.35 1.43C409.31 0 331.97 -1.44 253.31 2.88C206.12 2.88 185.14 41.75 206.12 89.27C221.85 123.83 238.89 156.95 255.93 191.51C308.37 300.95 360.81 410.39 414.56 519.83C434.22 558.71 465.69 570.23 493.22 548.63C515.5 531.35 520.75 495.35 506.33 466.55C452.58 357.11 398.83 247.67 343.77 139.67C330.66 112.31 335.9 107.99 362.12 107.99C478.8 109.43 594.16 109.43 710.84 109.43C735.74 109.43 756.72 132.47 755.41 158.39C754.1 185.75 731.81 204.47 704.28 203.03C636.11 200.15 569.25 200.15 502.39 198.71C484.04 198.71 485.35 207.35 491.91 220.31C503.7 244.79 515.5 267.83 525.99 292.31C531.23 305.27 540.41 311.03 553.52 311.03C571.83 311.03 590.28 311.19 608.77 311.35C645.92 311.67 683.26 311.99 720.01 311.03C761.96 309.59 798.67 289.43 823.58 250.55ZM712.12 2.43L712.13 2.43Q751.08 3.43 780.45 20.72Q783.43 22.48 786.32 24.41Q787.65 25.3 788.96 26.22Q819.63 47.87 837.08 88.23Q853.4 125.02 852.48 161.37Q852.36 166.32 851.92 171.27Q851.47 176.21 850.71 181.1Q845.16 216.85 822.75 249.99L822.74 250L822.74 250.01Q806.1 275.99 782.5 291.05Q780.13 292.57 777.69 293.97Q770.43 298.14 762.75 301.23Q742.82 309.25 719.98 310.03Q683.24 311 608.78 310.35Q571.88 310.03 553.52 310.03Q544.07 310.03 537.49 305.69Q530.65 301.16 526.92 291.94Q519.13 273.76 501.95 238.66Q495.86 226.22 492.81 219.88Q487.45 209.29 488.77 204.94Q488.89 204.53 489.08 204.15Q491.3 199.71 502.39 199.71Q524.74 200.2 569.58 200.84Q658.91 202.12 704.24 204.03Q717.62 204.73 728.5 199.85Q734.84 197.01 740.33 192.27Q746.78 186.7 750.66 179.71Q755.84 170.35 756.41 158.44Q756.87 149.35 754.24 141.26Q751.13 131.69 743.69 123.52Q735.47 114.49 725.32 110.87Q718.51 108.43 710.84 108.43L536.77 108.26L362.13 106.99Q341.31 106.99 337.36 113.03Q333.04 119.61 342.86 140.11L342.87 140.12L342.88 140.13Q398 248.27 505.41 466.97L505.43 466.99Q511.29 478.7 512.88 490.97Q514.19 501.17 512.55 511.76Q509.82 529.3 500.01 540.79Q496.71 544.66 492.6 547.84Q479.69 557.98 466.4 558.48Q458.9 558.76 451.28 555.97Q430.02 548.19 415.45 519.38L256.88 191.17L256.83 191.08Q252.38 182.04 243.49 164.21Q218.64 114.37 207.03 88.86Q199.38 71.54 199 55.7Q198.65 41.01 204.58 29.57Q204.8 29.15 205.03 28.73Q207.66 23.9 211.27 19.97Q216.41 14.36 223.54 10.58Q236.18 3.88 253.31 3.88L253.34 3.88L253.36 3.87Q305.78 1 370.31 1Q409.31 1 485.33 2.43Q510.75 2.43 561.49 2.11Q662.36 1.48 712.12 2.43Z" fill="#FFFFFF" fill-opacity="0.400000" fill-rule="evenodd"/>
	<path id="XMLID_781_" d="M309.68 498.23C309.68 527.03 299.19 544.31 276.91 550.07C253.31 555.83 232.33 551.51 219.22 525.59C198.25 485.27 178.58 443.51 158.92 401.75C109.1 299.51 60.6 197.27 10.78 95.03C-7.57 56.15 -2.33 25.92 25.2 10.08C51.42 -5.76 80.26 7.19 97.3 43.19C165.47 182.87 232.33 322.55 300.5 460.79C305.75 473.75 310.99 486.71 309.68 498.23ZM299.59 461.2Q304.8 474.09 306.59 480.33Q309.54 490.64 308.69 498.12L308.68 498.18L308.68 498.23Q308.68 526.49 294.58 539.65Q287.44 546.31 276.67 549.1Q276.66 549.1 276.66 549.1Q254.91 554.41 239.98 546.63Q227.76 540.26 220.12 525.14Q199.14 484.82 159.82 401.33L85.75 247.96L11.68 94.6Q-1.93 65.76 1.77 44.08Q3.25 35.41 7.44 28.33Q13.62 17.89 25.7 10.94Q36.66 4.32 47.62 4.31Q55.95 4.3 64.28 8.1Q83.8 17.02 96.4 43.62L299.59 461.2Z" fill="#FFFFFF" fill-opacity="0.400000" fill-rule="evenodd"/>
</svg>
