<svg width="633.224182" height="405.000031" viewBox="0 0 633.224 405" fill="none" xmlns="http://www.w3.org/2000/svg" xmlns:xlink="http://www.w3.org/1999/xlink">
	<desc>
			Created with Pixso.
	</desc>
	<defs>
		<filter id="filter_13_54_dd" x="0.000000" y="0.000000" width="633.224182" height="405.000031" filterUnits="userSpaceOnUse" color-interpolation-filters="sRGB">
			<feFlood flood-opacity="0" result="BackgroundImageFix"/>
			<feBlend mode="normal" in="SourceGraphic" in2="BackgroundImageFix" result="shape"/>
			<feGaussianBlur stdDeviation="1.33333" result="effect_layerBlur_1"/>
		</filter>
	</defs>
	<g filter="url(#filter_13_54_dd)">
		<path id="XMLID_785_" d="M607.97 181.81C632.16 146.04 635.88 106.19 618.2 66.33C600.52 25.46 568.89 6.04 528.89 5.02C493.57 4.34 457.83 4.56 421.96 4.79C403.98 4.9 385.96 5.02 367.93 5.02C313.97 3.99 259.08 2.97 203.26 6.04C169.77 6.04 154.88 33.63 169.77 67.35C180.93 91.88 193.03 115.39 205.12 139.91C242.34 217.58 279.55 295.24 317.7 372.91C331.65 400.5 353.98 408.68 373.52 393.35C389.33 381.09 393.05 355.54 382.82 335.1C344.68 257.43 306.53 179.77 267.46 103.12C258.15 83.71 261.87 80.64 280.48 80.64C363.28 81.66 445.15 81.66 527.96 81.66C545.63 81.66 560.52 98.01 559.59 116.41C558.66 135.82 542.84 149.11 523.3 148.09C474.93 146.04 427.48 146.04 380.03 145.02C367 145.02 367.93 151.15 372.59 160.35C380.96 177.72 389.33 194.07 396.78 211.45C400.5 220.64 407.01 224.73 416.31 224.73C429.3 224.73 442.4 224.84 455.53 224.96C481.89 225.19 508.38 225.41 534.47 224.73C564.24 223.71 590.29 209.4 607.97 181.81ZM528.86 6.02L528.87 6.02Q559 6.79 580.57 20.78Q603.98 35.96 617.28 66.73Q628.86 92.83 628.19 118.61Q628.1 122.06 627.79 125.52Q627.47 129 626.94 132.45Q623.01 157.78 607.14 181.25L607.13 181.26L607.13 181.27Q595.33 199.68 578.6 210.34Q576.95 211.39 575.26 212.37Q570.13 215.31 564.7 217.5Q550.6 223.18 534.43 223.73Q508.38 224.41 455.53 223.96Q429.29 223.73 416.31 223.73Q409.7 223.73 405.1 220.69Q400.32 217.53 397.7 211.07Q392.17 198.16 379.98 173.24Q375.66 164.41 373.49 159.92Q369.74 152.5 370.64 149.53Q370.71 149.28 370.82 149.05Q372.28 146.02 380.03 146.02Q395.89 146.36 427.71 146.82Q491.1 147.73 523.26 149.09Q532.81 149.59 540.58 146.11Q545.13 144.07 549.08 140.67Q553.7 136.68 556.48 131.66Q560.18 124.97 560.59 116.46Q560.92 109.94 559.03 104.15Q556.81 97.3 551.49 91.46Q545.61 85.01 538.36 82.41Q533.47 80.66 527.96 80.66L404.43 80.53L280.49 79.64Q265.56 79.64 262.67 84.05Q259.51 88.86 266.55 103.55L266.56 103.57L266.57 103.58Q305.6 180.14 381.91 335.52L381.92 335.54Q386.07 343.82 387.18 352.49Q388.11 359.68 386.95 367.14Q385.02 379.53 378.09 387.63Q375.77 390.33 372.9 392.56Q363.8 399.7 354.45 400.05Q349.19 400.24 343.86 398.29Q328.88 392.8 318.59 372.46L206.06 139.56L206.02 139.48Q202.86 133.06 196.55 120.41Q178.92 85.04 170.68 66.94Q161.26 45.61 166.95 29.67Q167.89 27.03 169.25 24.53Q172.18 19.14 176.54 15.41Q186.31 7.04 203.26 7.04L203.29 7.04L203.32 7.04Q259.34 3.96 367.92 6.02Q385.96 6.02 421.97 5.79Q493.55 5.34 528.86 6.02Z" fill="#2375E6" fill-opacity="1.000000" fill-rule="evenodd"/>
		<path id="XMLID_781_" d="M243.27 357.58C243.27 378.02 235.82 390.28 220.01 394.37C203.26 398.46 188.37 395.39 179.07 377C164.19 348.38 150.23 318.75 136.27 289.11C100.92 216.56 66.5 144 31.14 71.44C18.12 43.85 21.84 22.39 41.38 11.15C59.98 -0.09 80.45 9.1 92.55 34.65C140.93 133.78 188.37 232.91 236.75 331.01C240.47 340.21 244.2 349.41 243.27 357.58ZM235.84 331.42Q243.17 349.55 242.27 357.47L242.27 357.53L242.27 357.58Q242.27 377.53 232.32 386.78Q227.31 391.45 219.77 393.4Q219.76 393.4 219.76 393.4Q204.44 397.14 193.92 391.66Q185.34 387.18 179.96 376.55Q165.08 347.93 137.18 288.69L84.61 179.84L32.04 71.01Q22.42 50.63 25.04 35.33Q26.07 29.24 29.01 24.27Q33.36 16.91 41.88 12.02Q49.6 7.35 57.32 7.35Q63.15 7.35 68.99 10.01Q82.75 16.3 91.64 35.08L235.84 331.42Z" fill="#2375E6" fill-opacity="1.000000" fill-rule="evenodd"/>
		<rect id="Rectangle 2" x="4.500000" y="247.143677" rx="28.737036" width="57.474072" height="148.868179" stroke="#2375E6" stroke-opacity="1.000000" stroke-width="1.000000"/>
		<rect id="Rectangle 3" x="4.500000" y="165.072906" rx="28.737036" width="57.474072" height="63.229218" stroke="#2375E6" stroke-opacity="1.000000" stroke-width="1.000000"/>
	</g>
</svg>
