<svg width="100.000031" height="41.866852" viewBox="0 0 100 41.8669" fill="none" xmlns="http://www.w3.org/2000/svg" xmlns:xlink="http://www.w3.org/1999/xlink">
	<desc>
			Created with Pixso.
	</desc>
	<defs/>
	<path id="XMLID_785_" d="M42.11 0.1C48.36 0.1 54.6 0 60.74 0.1C65.37 0.21 69.03 2.26 71.07 6.56C73.12 10.76 72.69 14.96 69.89 18.73C67.84 21.64 64.83 23.14 61.38 23.25C56.86 23.36 52.23 23.25 47.71 23.25C46.63 23.25 45.88 22.82 45.45 21.85C44.59 20.02 43.62 18.3 42.65 16.47C42.11 15.5 42 14.85 43.51 14.85C49 14.96 54.49 14.96 60.09 15.18C62.35 15.28 64.18 13.88 64.29 11.84C64.4 9.9 62.68 8.18 60.63 8.18C51.05 8.18 41.57 8.18 31.99 8.07C29.84 8.07 29.41 8.39 30.48 10.44C35.01 18.51 39.42 26.7 43.83 34.88C45.02 37.03 44.59 39.72 42.76 41.02C40.5 42.63 37.91 41.77 36.3 38.86C31.88 30.68 27.58 22.5 23.27 14.31C21.87 11.73 20.47 9.25 19.18 6.67C17.46 3.12 19.18 0.21 23.05 0.21C29.51 -0.11 35.87 0 42.11 0.1Z" fill="#FFFFFF" fill-opacity="1.000000" fill-rule="nonzero"/>
	<path id="XMLID_781_" d="M27.68 37.25C27.68 39.4 26.82 40.69 24.99 41.12C23.05 41.55 21.33 41.23 20.26 39.29C18.53 36.28 16.92 33.16 15.3 30.03C11.21 22.39 7.23 14.75 3.14 7.1C1.63 4.19 2.06 1.93 4.32 0.75C6.47 -0.44 8.84 0.53 10.24 3.22C15.84 13.67 21.33 24.11 26.93 34.45C27.36 35.42 27.79 36.39 27.68 37.25Z" fill="#FFFFFF" fill-opacity="1.000000" fill-rule="nonzero"/>
	<rect id="Rectangle 2" y="25.563843" rx="3.383455" width="6.766909" height="15.789455" fill="#FFFFFF" fill-opacity="1.000000"/>
	<rect id="Rectangle 3" y="16.917267" rx="3.383454" width="6.766909" height="6.766909" fill="#FFFFFF" fill-opacity="1.000000"/>
	<path id="Dev" d="M83.09 34.46L83.09 33.96C83.09 32.78 82.92 31.72 82.59 30.79C82.26 29.84 81.79 29.03 81.16 28.36C80.56 27.7 79.82 27.19 78.93 26.84Q77.62 26.31 76.01 26.31Q74.58 26.31 73.32 26.77Q73.16 26.83 73 26.9C72.06 27.27 71.26 27.8 70.57 28.49C69.89 29.17 69.35 30 68.96 30.98C68.59 31.93 68.4 32.98 68.4 34.12C68.4 35.28 68.6 36.34 68.99 37.29C69.38 38.24 69.92 39.06 70.6 39.75C71.29 40.41 72.11 40.93 73.06 41.3Q74.49 41.86 76.16 41.86C77.47 41.86 78.65 41.62 79.7 41.15Q79.89 41.06 80.08 40.96Q81.46 40.22 82.5 38.84L80.45 37.2C80.04 37.82 79.47 38.35 78.74 38.78C78.02 39.22 77.16 39.44 76.16 39.44C75.52 39.44 74.91 39.32 74.33 39.09C73.77 38.87 73.28 38.55 72.84 38.16C72.41 37.75 72.05 37.27 71.78 36.73C71.54 36.17 71.4 35.58 71.38 34.96L83.06 34.96C83.08 34.79 83.09 34.63 83.09 34.46ZM90.93 41.46L94.09 41.46L100 26.72L96.89 26.72L92.54 38.32L92.48 38.32L88.16 26.72L84.93 26.72L90.93 41.46ZM79.83 31.16C80.02 31.66 80.12 32.2 80.14 32.78L71.38 32.78C71.42 32.2 71.57 31.66 71.82 31.16C72.08 30.64 72.42 30.2 72.81 29.83C73.22 29.45 73.7 29.16 74.24 28.95C74.8 28.73 75.39 28.61 76.01 28.61Q77.03 28.61 77.78 28.95C78.3 29.16 78.72 29.45 79.05 29.83C79.4 30.2 79.66 30.64 79.83 31.16Z" fill="#FFFFFF" fill-opacity="1.000000" fill-rule="evenodd"/>
	<path id="Union" d="M58.3529 26.3158L53.0073 26.3158L53.0073 41.7293L58.3529 41.7293C59.3198 41.7293 60.2847 41.578 61.2465 41.2773L61.2513 41.2757C62.2197 40.9585 63.0977 40.4889 63.8831 39.8672L63.8864 39.8645C64.6796 39.2219 65.3189 38.4203 65.8049 37.4649L65.806 37.4629C66.3007 36.4756 66.5411 35.325 66.5411 34.0225C66.5411 32.6808 66.3015 31.5089 65.806 30.52C65.3198 29.55 64.6794 28.7462 63.8831 28.1158C63.0953 27.4921 62.2139 27.0352 61.2415 26.7456C60.2811 26.4595 59.3179 26.3158 58.3529 26.3158ZM58.3529 26.6917L53.3833 26.6917L53.3833 41.3533L53.3832 41.3533L53.3832 26.6917L58.3529 26.6917ZM61.3604 38.7454C61.6963 38.5609 62.0027 38.3465 62.2795 38.1021C62.8249 37.6327 63.2475 37.0529 63.5475 36.3626C63.8474 35.6723 63.9974 34.8923 63.9974 34.0225C63.9974 33.3676 63.9199 32.7698 63.765 32.229C63.9199 32.7698 63.9974 33.3676 63.9974 34.0225C63.9974 34.8923 63.8474 35.6723 63.5475 36.3626Q63.222 37.1116 62.7039 37.6873Q62.5057 37.9073 62.2795 38.1021C62.0027 38.3465 61.6963 38.5609 61.3604 38.7454ZM60.2388 38.8221L60.2369 38.8228C59.5438 39.0567 58.7805 39.1758 57.9438 39.1758L55.7839 39.1758L55.7839 28.8486L57.9438 28.8486C58.7805 28.8486 59.5438 28.9677 60.2369 29.2016L60.2408 29.2029L60.2448 29.2042C60.9498 29.4248 61.5427 29.7525 62.0307 30.1833L62.0345 30.1868L62.0385 30.19C62.5363 30.6059 62.9246 31.1303 63.2026 31.7701C63.4782 32.4043 63.6215 33.1523 63.6215 34.0225C63.6215 34.8487 63.4791 35.5765 63.2026 36.2128C62.9243 36.8535 62.5347 37.3864 62.0342 37.8171L62.0307 37.8203C61.5411 38.2525 60.946 38.5877 60.2388 38.8221Z" clip-rule="evenodd" fill="#FFFFFF" fill-opacity="1.000000" fill-rule="evenodd"/>
</svg>
