<svg viewBox="0 0 1282 1e3" width="41.024" height="32" xmlns="http://www.w3.org/2000/svg" xmlns:xlink="http://www.w3.org/1999/xlink">
    <path fill="currentColor" d="M840 152v0q85 36 160 104 59 53 109 123 40 57 70 117-30 60-70 116-50 70-109 123-169 154-359 154T282 735q-57-51-105-123-32-48-66-116 21-56 63-117 47-68 108-123 75-68 160-104 95-41 199-41t199 41zM82 331v0Q29 409 9 470q-13 26 0 51 31 71 76 139 59 88 129 152 87 80 185 125 117 54 242 54t243-54q97-45 184-125 70-64 129-152 45-68 77-139 12-25 0-51-32-70-77-139-59-88-129-152-82-82-184-128Q769 0 641 0 516 0 399 54q-98 46-185 125-74 68-132 152zM549 651.5Q508 628 485 587t-23-91v0h34q41 0 74.5-20t52-53.5T641 350v-34q47 0 88.5 24t65.5 64q26 42 26 92t-23.5 91-64.5 64.5-92 23.5-92-23.5zM533 237v0q-49 22-89 62-85 100-85 205 0 51 23.5 104.5T444 701q74 85 197 85 57 0 111.5-23t94-62.5T908 612q24-52 24-108.5t-23.5-111T846 299q-85-85-205-85-56 0-108 23z" />
</svg>